# xmcd CD database file
#
# Track frame offsets:
#	150
#	45045
#	82470
#	109750
#	146945
#	180992
#
# Disc length: 2833 seconds
#
# Revision: 0
# Processed by: cddbd v1.5.2PL0 Copyright (c) Steve Scherf et al.
# Submitted via: CDex 1.70beta2
#
DISCID=4b0b0f06
DTITLE=Art Blakey and The Jazz Messengers - Tokyo 1961
DYEAR=1961
DGENRE=Jazz
TTITLE0=Moanin' (Bobby Timmons)
TTITLE1=A Night in Tunisia (Dizzy Gillespie-Frank Paparelli)
TTITLE2=The Summit (Wayne Shorter)
TTITLE3=Dat Dere (Bobby Timmons)
TTITLE4=Yama (Lee Morgan)
TTITLE5=Blues March (Benny Golson)
EXTD=YEAR: 1961
EXTT0=
EXTT1=
EXTT2=
EXTT3=
EXTT4=
EXTT5=
PLAYORDER=
